#!OML:ASF F:\VICON\USERDATA\INSTALL\rory3\rory3.ASF
:FULLY-SPECIFIED
:DEGREES
72
root 0.15707638039369431 17.844222357636234 10.046114759714927 0.2883245847620845 -0.6858642602416208 -2.048038129293166
lfemur -12.309357721131008 -1.2337581862801208 -20.220708645526834
ltibia 42.5400575936403
lfoot -2.5510468144786813 -5.201819196842396
ltoes -7.224669251077788
rfemur -14.79284535954899 3.047108735937664 27.151492040197226
rtibia 48.678412279541725
rfoot -2.245071732654536 -6.8122286619606784
rtoes 3.382323978328974
lowerback 12.436920182253964 0.5454322777004922 1.226683114460652
upperback -0.24782582544068446 1.0068011097197205 1.533932053931868
thorax -7.109226427279382 0.47085932832797 0.7861001620968268
lowerneck -17.693453056309068 -3.452181393900645 -2.045969812061727
upperneck 17.487961601533986 -4.532177620870798 1.9081032621399445
head 8.488054699465753 -2.096144110971071 0.40613300435755184
lclavicle -7.488541651229714e-16 -6.458104613954634e-16
lhumerus -39.03629280535455 -2.584866560574665 86.96577346089309
lradius 61.55178434398679
lwrist 16.896182528729813
lhand -27.924185586376126 13.405669167220278
lfingers 7.125020000000057
lthumb -1.312500469080975 43.35873105052271
rclavicle -7.488541651229714e-16 -6.458104613954634e-16
rhumerus -37.518105948110765 -6.4907861557216275 -85.91645704846138
rradius 62.14689354120706
rwrist -4.228888257172907
rhand -17.981383888728455 29.75183153393449
rfingers 7.125020000000057
rthumb 8.288038669913282 -0.05921707566960761
73
root 0.1570849912629811 17.84422781739992 10.04640810710918 0.28836944652664437 -0.6858168264722166 -2.0479940254867133
lfemur -12.309128426358555 -1.2337084921340409 -20.220623899179692
ltibia 42.54037932177717
lfoot -2.550870055022928 -5.2017196474020215
ltoes -7.224549076246717
rfemur -14.79261467774823 3.047162382602058 27.1515744686499
rtibia 48.678752341507604
rfoot -2.2448895722212785 -6.8121625906863335
rtoes 3.3824630283953363
lowerback 12.436956316707551 0.5454513146743581 1.2267328826598436
upperback -0.24781531541701352 1.0068316426731356 1.5339460424937568
thorax -7.109200401221703 0.4708727219746302 0.7861318647319918
lowerneck -17.693426130037768 -3.452166918933384 -2.045961909092325
upperneck 17.488028583006482 -4.532155773699872 1.9081274007671079
head 8.48807344279554 -2.0961349478698317 0.40614068625148386
lclavicle -7.485808412966608e-16 -6.455988259670659e-16
lhumerus -39.03611182417987 -2.5847534938075882 86.96586649774787
lradius 61.552321920836704
lwrist 16.896363519436246
lhand -27.92414493513184 13.405807187019896
lfingers 7.125020000000057
lthumb -1.3124612140993621 43.358869091569986
rclavicle -7.485808412966608e-16 -6.455988259670659e-16
rhumerus -37.517938749654924 -6.490573568200121 -85.91631985463498
rradius 62.14742276519197
rwrist -4.2287353779974906
rhand -17.981361890979557 29.751944667751403
rfingers 7.125020000000057
rthumb 8.28805989943958 -0.05910397967816147
74
root 0.15709338610575782 17.844233140190937 10.04669409510548 0.28841318281477324 -0.6857705827048112 -2.0479510281413007
lfemur -12.308904884054035 -1.233660044697508 -20.22054127891959
ltibia 42.54069297850984
lfoot -2.550697730047257 -5.201622595423572
ltoes -7.2244319163202375
rfemur -14.79238978321269 3.047214683397493 27.151654829166066
rtibia 48.679083872116514
rfoot -2.2447119817659593 -6.812098176985265
rtoes 3.3825985900217335
lowerback 12.436991544632466 0.5454698740552089 1.2267814022916694
upperback -0.24780506906518088 1.006861409626377 1.5339596801154438
thorax -7.109175028096757 0.47088577960611605 0.7861627720224121
lowerneck -17.693399879283447 -3.4521528071090946 -2.0459542043898864
upperneck 17.488093884070967 -4.532134474623213 1.908150933812743
head 8.488091715899156 -2.096126014649307 0.40614817542471826
lclavicle -7.483143745239583e-16 -6.453924999750885e-16
lhumerus -39.0359353833983 -2.5846432636204524 86.96595720052622
lradius 61.55284601114457
lwrist 16.896539969510442
lhand -27.924105303731906 13.405941744226523
lfingers 7.125020000000057
lthumb -1.312422943933149 43.35900366949122
rclavicle -7.483143745239583e-16 -6.453924999750885e-16
rhumerus -37.517775745816095 -6.490366314000816 -85.91618610267983
rradius 62.147938712188605
rwrist -4.2285863342019425
rhand -17.98134044510257 29.752054963306254
rfingers 7.125020000000057
rthumb 8.288080596366864 -0.05899372099982729
75
root 0.15708672541240246 17.84422891694582 10.046467184560836 0.2883784812710427 -0.6858072737498344 -2.047985143388066
lfemur -12.309082248512423 -1.2336984841927054 -20.220606832049302
ltibia 42.54044411484786
lfoot -2.550834457303614 -5.201699599065591
ltoes -7.224524874147391
rfemur -14.792568220567428 3.04717318654402 27.151591068977783
rtibia 48.67882082684186
rfoot -2.2448528867950563 -6.812149284542859
rtoes 3.3824910317924495
lowerback 12.43696359385225 0.5454551485447974 1.226742905514791
upperback -0.24781319879546687 1.0068377917275149 1.5339488596607231
thorax -7.109195159814435 0.47087541933117255 0.7861382493494556
lowerneck -17.6934207073358 -3.4521640038088752 -2.0459603175073924
upperneck 17.488042072455446 -4.53215137388174 1.9081322620633294
head 8.48807721752878 -2.0961331025060037 0.4061422333138621
lclavicle -7.485257964063646e-16 -6.455562045494743e-16
lhumerus -39.03607537624542 -2.5847307232065986 86.96588523450981
lradius 61.552430183841544
lwrist 16.896399969290307
lhand -27.924136748347276 13.405834982930816
lfingers 7.125020000000057
lthumb -1.312453308509185 43.35889689175999
rclavicle -7.485257964063646e-16 -6.455562045494743e-16
rhumerus -37.517905077432545 -6.490530755039784 -85.91629222506742
rradius 62.147529346007055
rwrist -4.228704589545737
rhand -17.981357460836414 29.75196745185561
rfingers 7.125020000000057
rthumb 8.288064174869797 -0.059081203191654164
76
root 0.1570865592022321 17.84422881155945 10.046461522261392 0.28837761533274053 -0.6858081893339213 -2.0479859946959817
lfemur -12.309086674444572 -1.2336994434074153 -20.220608467854507
ltibia 42.54043790473287
lfoot -2.55083786917973 -5.201701520605553
ltoes -7.2245271938062405
rfemur -14.792572673272506 3.047172151036346 27.15158947791343
rtibia 48.67881426284055
rfoot -2.244856402922829 -6.81215055987493
rtoes 3.382488347796856
lowerback 12.436962896371718 0.5454547810861164 1.2267419448706804
upperback -0.24781340166381463 1.0068372023692027 1.5339485896483496
thorax -7.109195662178986 0.4708751608020718 0.7861376374135156
lowerneck -17.69342122707661 -3.4521642832100246 -2.0459604700534184
upperneck 17.488040779554392 -4.5321517955838795 1.9081317961306576
head 8.488076855738125 -2.0961332793755587 0.4061420850351162
lclavicle -7.485310722035253e-16 -6.455602896144586e-16
lhumerus -39.036078869610705 -2.584732905662979 86.96588343867818
lradius 61.55241980733519
lwrist 16.89639647574103
lhand -27.924137533012566 13.405832318821812
lfingers 7.125020000000057
lthumb -1.3124540662232975 43.35889422724085
rclavicle -7.485310722035253e-16 -6.455602896144586e-16
rhumerus -37.51790830475872 -6.4905348584824205 -85.91629487323318
rradius 62.147519130730785
rwrist -4.228707540475886
rhand -17.981357885445064 29.75196526810501
rfingers 7.125020000000057
rthumb 8.288063765089662 -0.05908338621213435
77
root 0.15708962984379327 17.844230758514712 10.046566130132057 0.2883936130670199 -0.6857912744210497 -2.047970267250054
lfemur -12.3090049077803 -1.233681722442758 -20.220578247252263
ltibia 42.54055263319472
lfoot -2.5507748366433987 -5.201666021210682
ltoes -7.224484339383696
rfemur -14.792490411993043 3.0471912814715925 27.151618871953005
rtibia 48.67893552915769
rfoot -2.2447914443944237 -6.812126998815734
rtoes 3.3825379331405228
lowerback 12.436975781941255 0.5454615696833189 1.2267596922427253
upperback -0.24780965378257083 1.0068480904401533 1.5339535779785733
thorax -7.109186381269972 0.47087993698514 0.7861489425937354
lowerneck -17.693411625150834 -3.45215912142733 -2.0459576518494145
upperneck 17.48806466519084 -4.532144004868586 1.9081404039807282
head 8.488083539621659 -2.096130011807726 0.40614482440346455
lclavicle -7.48433604750151e-16 -6.454848202837086e-16
lhumerus -39.03601433160667 -2.584692585980656 86.96591661568081
lradius 61.55261150758783
lwrist 16.896461017144095
lhand -27.92412303675254 13.40588153677169
lfingers 7.125020000000057
lthumb -1.312440067871446 43.35894345276766
rclavicle -7.48433604750151e-16 -6.454848202837086e-16
rhumerus -37.517848681681144 -6.4904590496346515 -85.91624594982589
rradius 62.14770785234635
rwrist -4.22865302366298
rhand -17.98135004103357 29.75200561169735
rfingers 7.125020000000057
rthumb 8.28807133555248 -0.059043056108381994
78
root 0.15708841795182074 17.844229990108694 10.04652484448012 0.288387299231502 -0.6857979502400005 -2.047976474410704
lfemur -12.309037178679418 -1.2336887163866572 -20.22059017443573
ltibia 42.54050735324291
lfoot -2.550799713732849 -5.201680031778446
ltoes -7.224501252764705
rfemur -14.79252287810224 3.0471837312510783 27.15160727098953
rtibia 48.67888766890655
rfoot -2.244817081616337 -6.812136297673296
rtoes 3.38251836326278
lowerback 12.43697069638569 0.5454588904235322 1.2267526878766064
upperback -0.2478111329611408 1.0068437932385692 1.53395160923125
thorax -7.109190044171977 0.47087805196606364 0.7861444807713822
lowerneck -17.693415414748717 -3.4521611586312453 -2.045958764111703
upperneck 17.488055238232178 -4.53214707963493 1.9081370067153056
head 8.48808090168928 -2.0961313014207095 0.4061437432552924
lclavicle -7.48472072289254e-16 -6.455146058103762e-16
lhumerus -39.03603980285998 -2.5847084989742006 86.965903521693
lradius 61.55253584913253
lwrist 16.89643554454929
lhand -27.9241287580003 13.405862111893477
lfingers 7.125020000000057
lthumb -1.3124455926094851 43.35892402489906
rclavicle -7.48472072289254e-16 -6.455146058103762e-16
rhumerus -37.51787221315743 -6.490488969158707 -85.9162652584568
rradius 62.14763336947155
rwrist -4.228674539846686
rhand -17.981353136992222 29.751989689267223
rfingers 7.125020000000057
rthumb 8.288068347713315 -0.05905897321495872
